<mxfile host="65bd71144e">
    <diagram id="VLdTmAQN8SQ1gorpBs4H" name="Страница 1">
        <mxGraphModel dx="1186" dy="970" grid="1" gridSize="10" guides="1" tooltips="1" connect="1" arrows="1" fold="1" page="1" pageScale="1" pageWidth="827" pageHeight="1169" math="0" shadow="0">
            <root>
                <mxCell id="0"/>
                <mxCell id="1" parent="0"/>
                <mxCell id="2" value="" style="rounded=0;whiteSpace=wrap;html=1;" vertex="1" parent="1">
                    <mxGeometry x="10" y="10" width="540" height="530" as="geometry"/>
                </mxCell>
                <mxCell id="3" value="Template Method" style="text;html=1;strokeColor=none;fillColor=none;align=center;verticalAlign=middle;whiteSpace=wrap;rounded=0;fontSize=15;" vertex="1" parent="1">
                    <mxGeometry x="10" y="10" width="140" height="30" as="geometry"/>
                </mxCell>
                <mxCell id="4" value="WebpackPlugin" style="swimlane;fontStyle=3;align=center;verticalAlign=top;childLayout=stackLayout;horizontal=1;startSize=26;horizontalStack=0;resizeParent=1;resizeParentMax=0;resizeLast=0;collapsible=1;marginBottom=0;fontSize=15;" vertex="1" parent="1">
                    <mxGeometry x="90" y="70" width="270" height="140" as="geometry"/>
                </mxCell>
                <mxCell id="6" value="" style="line;strokeWidth=1;fillColor=none;align=left;verticalAlign=middle;spacingTop=-1;spacingLeft=3;spacingRight=3;rotatable=0;labelPosition=right;points=[];portConstraint=eastwest;strokeColor=inherit;fontSize=15;" vertex="1" parent="4">
                    <mxGeometry y="26" width="270" height="8" as="geometry"/>
                </mxCell>
                <mxCell id="7" value="&lt;span style=&quot;font-style: normal;&quot;&gt;- projectDFS(): void&lt;/span&gt;&lt;br&gt;&lt;span style=&quot;font-style: normal;&quot;&gt;- createAST(): void&lt;/span&gt;&lt;br&gt;&lt;span style=&quot;font-style: normal;&quot;&gt;+ getSourceDir(path: string): void&lt;/span&gt;&lt;br&gt;+ preprocessInput(input: string): string&lt;br&gt;+ processOutput(out: string): string" style="text;strokeColor=none;fillColor=none;align=left;verticalAlign=top;spacingLeft=4;spacingRight=4;overflow=hidden;rotatable=0;points=[[0,0.5],[1,0.5]];portConstraint=eastwest;fontSize=15;html=1;fontStyle=2" vertex="1" parent="4">
                    <mxGeometry y="34" width="270" height="106" as="geometry"/>
                </mxCell>
                <mxCell id="8" value="HTLMWebpackPlugin" style="swimlane;fontStyle=1;align=center;verticalAlign=top;childLayout=stackLayout;horizontal=1;startSize=26;horizontalStack=0;resizeParent=1;resizeParentMax=0;resizeLast=0;collapsible=1;marginBottom=0;fontSize=15;html=1;" vertex="1" parent="1">
                    <mxGeometry x="30" y="260" width="270" height="70" as="geometry"/>
                </mxCell>
                <mxCell id="10" value="" style="line;strokeWidth=1;fillColor=none;align=left;verticalAlign=middle;spacingTop=-1;spacingLeft=3;spacingRight=3;rotatable=0;labelPosition=right;points=[];portConstraint=eastwest;strokeColor=inherit;fontSize=15;html=1;" vertex="1" parent="8">
                    <mxGeometry y="26" width="270" height="8" as="geometry"/>
                </mxCell>
                <mxCell id="11" value="+ processOutput(out: string): string" style="text;strokeColor=none;fillColor=none;align=left;verticalAlign=top;spacingLeft=4;spacingRight=4;overflow=hidden;rotatable=0;points=[[0,0.5],[1,0.5]];portConstraint=eastwest;fontSize=15;html=1;" vertex="1" parent="8">
                    <mxGeometry y="34" width="270" height="36" as="geometry"/>
                </mxCell>
                <mxCell id="12" value="DeadCodeWebpackPlugin" style="swimlane;fontStyle=1;align=center;verticalAlign=top;childLayout=stackLayout;horizontal=1;startSize=26;horizontalStack=0;resizeParent=1;resizeParentMax=0;resizeLast=0;collapsible=1;marginBottom=0;fontSize=15;html=1;" vertex="1" parent="1">
                    <mxGeometry x="220" y="360" width="280" height="90" as="geometry"/>
                </mxCell>
                <mxCell id="14" value="" style="line;strokeWidth=1;fillColor=none;align=left;verticalAlign=middle;spacingTop=-1;spacingLeft=3;spacingRight=3;rotatable=0;labelPosition=right;points=[];portConstraint=eastwest;strokeColor=inherit;fontSize=15;html=1;" vertex="1" parent="12">
                    <mxGeometry y="26" width="280" height="8" as="geometry"/>
                </mxCell>
                <mxCell id="15" value="+ preprocessInput(input: string): string&lt;br&gt;+ processOutput(out: string): string" style="text;strokeColor=none;fillColor=none;align=left;verticalAlign=top;spacingLeft=4;spacingRight=4;overflow=hidden;rotatable=0;points=[[0,0.5],[1,0.5]];portConstraint=eastwest;fontSize=15;html=1;" vertex="1" parent="12">
                    <mxGeometry y="34" width="280" height="56" as="geometry"/>
                </mxCell>
                <mxCell id="17" value="Extends" style="endArrow=block;endSize=16;endFill=0;html=1;fontSize=15;edgeStyle=orthogonalEdgeStyle;" edge="1" parent="1" source="8" target="4">
                    <mxGeometry width="160" relative="1" as="geometry">
                        <mxPoint x="340" y="360" as="sourcePoint"/>
                        <mxPoint x="500" y="360" as="targetPoint"/>
                    </mxGeometry>
                </mxCell>
                <mxCell id="18" value="Extends" style="endArrow=block;endSize=16;endFill=0;html=1;fontSize=15;edgeStyle=orthogonalEdgeStyle;" edge="1" parent="1" source="12" target="4">
                    <mxGeometry x="0.0035" width="160" relative="1" as="geometry">
                        <mxPoint x="188.54838709677415" y="270" as="sourcePoint"/>
                        <mxPoint x="207.9032258064517" y="220" as="targetPoint"/>
                        <Array as="points">
                            <mxPoint x="360" y="240"/>
                            <mxPoint x="225" y="240"/>
                        </Array>
                        <mxPoint as="offset"/>
                    </mxGeometry>
                </mxCell>
            </root>
        </mxGraphModel>
    </diagram>
</mxfile>
